<?xml version="1.0" encoding="utf-8"?>
<!-- Generator: Adobe Illustrator 22.1.0, SVG Export Plug-In . SVG Version: 6.00 Build 0)  -->
<svg version="1.1" id="Layer_1" xmlns="http://www.w3.org/2000/svg" xmlns:xlink="http://www.w3.org/1999/xlink" x="0px" y="0px"
	 viewBox="0 0 400 200" style="enable-background:new 0 0 400 200;" xml:space="preserve">
<style type="text/css">
	.st0{fill:#010101;}
</style>
<g>
	<path class="st0" d="M52,97.6l1.2,0.1c5,0.3,6.6,1.2,7.2,1.6c0.4,0.4,1.4,1.8,1.4,7.1v17.9c0,0.8-0.2,1.5-0.6,1.8
		c-0.3,0.2-1.1,0.8-4.5,2c-1.6,0.5-3.3,0.9-4.9,1.2c-1.8,0.3-3.3,0.4-4.6,0.4c-7.6,0-14.1-2.8-19.2-8.3c-5.2-5.5-7.8-13.4-7.8-23.3
		c0-12.1,2.6-20.9,7.8-26.1c5.2-5.2,11.3-7.8,18-7.8s12.1,2.1,16.3,6.6c2.3,2.5,4.6,6.5,6.9,11.8l0.3,0.8h4.9l-1-26.4h-4.7l-0.3,0.8
		c-0.4,1-0.8,1.7-1.4,2.2c-0.3,0.2-0.8,0.6-2.5,0.6c-0.2,0-1.3-0.1-6.9-1.8C53.4,57.6,49,57,44.5,57c-12.4,0-22.5,4.3-30,12.8
		c-6.8,7.6-10.3,17-10.3,27.7c0,12.2,4.4,22.1,13,29.4c7.8,6.6,17.4,9.9,28.7,9.9c6.1,0,12.5-1.1,19.1-3.4c8.8-3,10.6-4.8,10.6-6.6
		v-22.1c0-3.1,0.6-5.3,1.8-6.2c0.4-0.3,1.5-0.8,4.8-1.1l1.2-0.1v-4.7H52V97.6z"/>
	<path class="st0" d="M145.8,63l1.2,0.1c3.7,0.4,6.3,1.2,7.5,2.5c0.7,0.7,1.8,3.1,1.8,10.6v29.2c0,6.9-0.8,12-2.5,15.3
		c-2.9,5.7-8.6,8.5-17.3,8.5c-7.9,0-13.1-2.7-15.8-8.2c-1.5-3.1-2.3-7.5-2.3-13.2v-36c0-4.9,0.9-6.4,1.5-6.9
		c0.6-0.5,2.3-1.5,7.6-1.8l1.2-0.1v-4.7H94.1v4.7l1.2,0.1c5.1,0.4,6.8,1.4,7.4,1.9c0.5,0.5,1.4,2,1.4,6.9v35.1
		c0,7.2,1.2,13,3.7,17.5c4.6,8.3,13.4,12.6,26,12.6c12.8,0,21.6-4.3,26.2-12.7c2.5-4.6,3.7-10.9,3.7-18.8V76.3c0-7.3,1-9.6,1.7-10.4
		c0.8-0.9,2.7-2.1,7.6-2.7l1.2-0.1v-4.6h-28.7V63H145.8z"/>
	<path class="st0" d="M248.1,114.4c-2.7,6.1-5.8,9.9-9.1,11.4c-3.5,1.6-8.9,2.3-16.3,2.3c-8.6,0-11.4-0.3-12.3-0.5
		c-0.3-0.1-1.1-0.3-1.1-2.7V98.6h16c5.7,0,7.6,1,8.1,1.7c0.8,0.8,1.9,2.9,2.9,7.9l0.2,1.1h5.1V80.7h-5.1l-0.2,1.1
		c-0.9,5.1-2.1,7.1-2.9,7.9c-0.6,0.7-2.4,1.7-8.1,1.7h-16V67.7c0-1.7,0.3-2.1,0.3-2.1s0.4-0.3,2-0.3h15.3c7.8,0,10.7,1,11.9,1.9
		c1.1,0.8,2.7,3.1,3.8,8.8l0.2,1.1h5.3l-0.5-18.8h-62.3V63l1.2,0.1c5,0.3,6.6,1.3,7.2,1.9c0.5,0.5,1.4,2.1,1.4,6.8v50
		c0,5.1-1,6.5-1.4,6.8c-0.6,0.5-2.3,1.4-7.3,1.9l-1.2,0.1v4.6h63.1l5.8-21.7h-5.7L248.1,114.4z"/>
	<path class="st0" d="M304.5,91.8l-9.9-6.1c-3.5-2.1-6.2-4.3-7.8-6.3c-1.6-1.8-2.3-4-2.3-6.5c0-2.8,1-4.9,2.9-6.5
		c2.1-1.6,4.4-2.4,7.2-2.4c3.6,0,7.4,1.4,11.2,4c3.8,2.7,6.5,7.5,8.3,14.3l0.3,1h5.3l-2.7-26.6h-4.6l-0.3,1c-0.3,1-0.6,1.8-1,2.3
		c-0.3,0.3-0.9,0.5-1.8,0.5c-0.2,0-1.2-0.2-5.8-1.8c-3.7-1.3-7-2-9.7-2c-6.6,0-11.9,2-16,6.1c-4,4-6.1,9.1-6.1,15.1
		c0,4.6,1.7,8.9,5.1,12.6c1.8,2,4.2,3.9,7.2,5.8l9.6,6c5.4,3.4,9,5.9,10.6,7.6c2.4,2.5,3.6,5.3,3.6,8.6c0,3.7-1.1,6.4-3.5,8.5
		c-2.3,2.1-5.1,3.1-8.4,3.1c-6.3,0-11.3-2.4-15.6-7.4c-2.4-2.9-4.6-6.8-6.4-11.7l-0.3-0.8h-5.1l3.7,26.6h4.8l0.2-1.1
		c0.1-0.8,0.4-1.4,0.7-2.1c0.2-0.3,0.7-0.5,1.4-0.5c0.2,0,1.2,0.2,6.1,1.9c3.9,1.4,7.8,2.1,11.3,2.1c7.2,0,13.3-2.1,17.9-6.3
		c4.8-4.2,7.1-9.5,7.1-15.8c0-4.7-1.4-8.8-4-12.2C315.3,99.3,310.7,95.6,304.5,91.8"/>
	<path class="st0" d="M391,102.5c-2.6-3.3-7.2-6.9-13.4-10.8l-9.9-6.1c-3.5-2.1-6.2-4.3-7.8-6.3c-1.6-1.8-2.3-4-2.3-6.5
		c0-2.8,1-4.9,2.9-6.5c2.1-1.6,4.4-2.4,7.2-2.4c3.6,0,7.4,1.4,11.2,4c3.8,2.7,6.5,7.5,8.3,14.3l0.3,1h5.2l-2.7-26.6h-4.6l-0.3,1
		c-0.3,1-0.6,1.8-1,2.3c-0.3,0.3-0.9,0.5-1.8,0.5c-0.2,0-1.2-0.2-5.8-1.8c-3.7-1.3-7-2-9.7-2c-6.6,0-11.9,2-16,6.1
		c-4,4-6.1,9.1-6.1,15.1c0,4.6,1.7,8.9,5.1,12.6c1.8,2,4.2,3.9,7.2,5.8l9.6,6c5.4,3.4,9,5.9,10.6,7.6c2.4,2.5,3.6,5.3,3.6,8.6
		c0,3.7-1.1,6.4-3.5,8.5c-2.3,2.1-5.1,3.1-8.4,3.1c-6.3,0-11.3-2.4-15.6-7.4c-2.4-2.9-4.6-6.8-6.4-11.7l-0.3-0.8h-5.1l3.7,26.6h4.8
		l0.2-1.1c0.1-0.8,0.4-1.4,0.7-2.1c0.2-0.3,0.7-0.5,1.4-0.5c0.2,0,1.2,0.2,6.1,1.9c3.9,1.4,7.8,2.1,11.3,2.1
		c7.2,0,13.3-2.1,17.9-6.3c4.8-4.2,7.1-9.5,7.1-15.8C395,110.1,393.6,106,391,102.5"/>
</g>
</svg>
