<?xml version="1.0" encoding="utf-8"?>
<!-- Generator: Adobe Illustrator 24.0.3, SVG Export Plug-In . SVG Version: 6.00 Build 0)  -->
<svg version="1.1" id="Layer_1" xmlns="http://www.w3.org/2000/svg" xmlns:xlink="http://www.w3.org/1999/xlink" x="0px" y="0px"
	 viewBox="0 0 841.9 595.3" style="enable-background:new 0 0 841.9 595.3;" xml:space="preserve">
<style type="text/css">
	.st0{fill:#523040;}
</style>
<g>
	<g>
		<path class="st0" d="M610.4,232.8h-18.5c-1.2,0-1.5,0.7-1.5,1.3c0,0.9,0.7,1.3,1.3,1.6c1.3,0.7,3.3,2.2,3.3,5.8V315
			c0,1.1,0.9,2.1,2.1,2.1h13.3c1.1,0,2.1-0.9,2.1-2.1v-80.2C612.5,233.7,611.6,232.8,610.4,232.8"/>
		<path class="st0" d="M549.7,313.2c-0.1-0.6-0.4-1.3-1.6-1.3c-9.1,0-16.4-9.7-22.9-19.9l-8.7-13.5c10.7-2.4,19.8-8.4,19.8-22.1
			c0-24.9-30.5-23.6-44-23.6h-19c-1.2,0-1.5,0.7-1.5,1.3c0,0.9,0.7,1.3,1.3,1.6c1.3,0.7,3.3,2.2,3.3,5.8V315c0,1.1,0.9,2.1,2.1,2.1
			h13.3c1.1,0,2.1-0.9,2.1-2.1v-35c1.2,0,3.7,0,5,0l14.8,23.9c6.8,10.7,15.1,19.1,34.7,10.8C549.1,314.4,549.8,314,549.7,313.2
			 M493.9,273.3v-33.9c20.6-0.4,25.5,7.5,25.5,17C519.4,265.9,514.5,273.7,493.9,273.3z"/>
		<path class="st0" d="M410.7,288c0,14.3-6,22.5-20,22.5c-14,0-19.5-10.2-19.5-22.5v-46.6c0-3.5,2-5,3.3-5.7
			c0.6-0.3,1.3-0.7,1.3-1.6c0-0.6-0.3-1.3-1.5-1.3h-23.8c-1.2,0-1.5,0.7-1.5,1.3c0,0.9,0.7,1.3,1.3,1.6c1.3,0.7,3.3,2.2,3.3,5.7V288
			c0,11.6,3.1,30.1,33.9,30.1c30.8,0,33.9-18.5,33.9-30.1v-53.2c0-1.1-0.9-2.1-2.1-2.1h-11.8c-1.2,0-1.5,0.7-1.5,1.3
			c0,0.9,0.7,1.3,1.4,1.6c1.3,0.7,3.3,2.2,3.3,5.8L410.7,288"/>
		<path class="st0" d="M762.7,232.8c-1.1,0-2.1,0.9-2.1,2.1v9.6c0,1.2,0.7,1.5,1.3,1.5c0.9,0,1.3-0.7,1.6-1.4
			c0.7-1.3,2.2-3.3,5.8-3.3h18.9V315c0,1.1,0.9,2.1,2.1,2.1h13.3c1.1,0,2.1-0.9,2.1-2.1v-73.8h18.9c3.6,0,5.1,2,5.8,3.3
			c0.3,0.6,0.7,1.4,1.6,1.4c0.6,0,1.3-0.3,1.3-1.5v-9.6c0-1.1-0.9-2.1-2.1-2.1H762.7"/>
		<path class="st0" d="M188,305.4c-3.1,5.6-14.3,12.6-29.6,12.6c-26.7,0-40.9-18.2-40.9-42.8s17.5-43.6,39.4-43.6
			c13.3,0,15.4,4.7,22.5,4.7c3.5,0,5-2,5.7-3.3c0.3-0.6,0.7-1.3,1.6-1.3c0.6,0,1.3,0.3,1.3,1.5V257c0,1.2-0.7,1.5-1.3,1.5
			c-0.9,0-1.3-0.7-1.6-1.4c-0.7-1.3-7-18.1-24.9-18.1c-14.5,0-24.4,15.3-24.4,35.8c0,20.5,9.8,34.8,28.6,34.8
			c10.7,0,17.9-3.8,22-6.6c1-0.7,1.6-0.2,2,0.3C188.7,304.1,188.4,304.8,188,305.4"/>
		<path class="st0" d="M301.9,305.4c-3.1,5.6-14.3,12.6-29.6,12.6c-26.7,0-40.9-18.2-40.9-42.8s17.5-43.6,39.4-43.6
			c13.4,0,15.4,4.7,22.5,4.7c3.5,0,5-2,5.7-3.3c0.3-0.6,0.7-1.3,1.6-1.3c0.6,0,1.3,0.3,1.3,1.5V257c0,1.2-0.7,1.5-1.3,1.5
			c-0.9,0-1.3-0.7-1.6-1.4c-0.7-1.3-7-18.1-24.9-18.1c-14.5,0-24.4,15.3-24.4,35.8c0,20.5,9.8,34.8,28.6,34.8
			c10.6,0,17.9-3.8,21.9-6.6c1-0.7,1.6-0.2,2,0.3C302.6,304.1,302.2,304.8,301.9,305.4"/>
		<path class="st0" d="M702.9,268.2c-16.4-6.5-21.5-11.1-21.5-17.4c0-7.7,5.9-11.4,13.1-11.4c13,0,15.3,11.5,15.7,13.5
			c0.3,1.4,1.3,2.1,2.4,2.1h10c1.1,0,2.1-0.9,2.1-2.1c0-11.7-10.5-21.2-29.2-21.2c-21.3,0-31.4,9.3-31.4,23.4
			c0,16.4,14.7,23.1,25.5,26.9c12,4.3,20.6,9.6,20.6,16.9c0,7.9-7.3,11.4-14.5,11.4c-15.2,0-16.6-12.4-16.9-14.4
			c-0.3-1.5-1.3-2.1-2.4-2.1h-10.8c-1.1,0-2.1,0.9-2.1,2.1c0,10.5,8.3,22.1,31.2,22.1c21.3,0,33.3-7.7,33.3-24.2
			C728.1,277.5,711.7,271.7,702.9,268.2"/>
		<path class="st0" d="M81.2,315l-13.5-34.5c5.6-5.3,8.8-10.8,9.8-13.7c1-2.5-0.4-3.8-2.4-1.4c-1.8,2.1-4.8,6.1-9.5,9.8l-16.2-41.4
			c-0.4-1.1-1.7-2.1-2.9-2.1h-14c-1.1,0-1.7,0.9-1.3,2.1l2.3,5.8L4.1,315c-0.4,1.1,0.1,2.1,1.3,2.1h7c1.1,0,2.4-0.9,2.9-2.1
			l8.8-22.7c3.1,0.7,6.4,1.1,9.9,1.1c7.8,0,14.4-1.5,19.9-3.9l10,25.4c0.4,1.1,1.7,2.1,2.9,2.1h13.3C81.1,317.1,81.6,316.1,81.2,315
			 M39.6,284.1c-4.4,0-8.3-0.6-11.7-1.6l11.5-29.6l11.7,29.8C47.7,283.5,43.9,284.1,39.6,284.1z"/>
	</g>
	<g>
		<path class="st0" d="M279.6,365.9c0-0.4,0.4-0.8,0.8-0.8h1.7c0.4,0,0.8,0.4,0.8,0.8v26.7h12.5c0.5,0,0.8,0.4,0.8,0.8v1.3
			c0,0.4-0.4,0.8-0.8,0.8h-15c-0.5,0-0.8-0.4-0.8-0.8L279.6,365.9L279.6,365.9z"/>
		<path class="st0" d="M332.8,364.6c8.7,0,15.6,7,15.6,15.7c0,8.7-6.9,15.6-15.6,15.6c-8.7,0-15.6-6.9-15.6-15.6
			C317.2,371.6,324.1,364.6,332.8,364.6z M332.8,392.8c6.9,0,12.6-5.6,12.6-12.6c0-6.9-5.7-12.6-12.6-12.6
			c-6.9,0-12.6,5.7-12.6,12.6C320.3,387.2,325.9,392.8,332.8,392.8z"/>
		<path class="st0" d="M374.1,365.4c0-0.4,0.4-0.8,0.8-0.8h1.1l19.6,24.4c0,0,0,0,0.1,0v-23.1c0-0.4,0.4-0.8,0.8-0.8h1.5
			c0.4,0,0.8,0.4,0.8,0.8v29.2c0,0.4-0.4,0.8-0.8,0.8h-0.8L377.4,371h0v23.6c0,0.4-0.3,0.8-0.8,0.8H375c-0.4,0-0.8-0.4-0.8-0.8
			L374.1,365.4L374.1,365.4z"/>
		<path class="st0" d="M426.8,365.9c0-0.4,0.4-0.8,0.8-0.8h9.7c8.4,0,15.2,6.8,15.2,15.1c0,8.4-6.9,15.2-15.2,15.2h-9.7
			c-0.4,0-0.8-0.4-0.8-0.8V365.9z M436.6,392.5c7.1,0,12.3-5.1,12.3-12.2c0-7.1-5.2-12.2-12.3-12.2h-6.5v24.4H436.6z"/>
		<path class="st0" d="M491.7,364.6c8.7,0,15.6,7,15.6,15.7c0,8.7-6.9,15.6-15.6,15.6c-8.7,0-15.6-6.9-15.6-15.6
			C476.1,371.6,483,364.6,491.7,364.6z M491.7,392.8c6.9,0,12.6-5.6,12.6-12.6c0-6.9-5.7-12.6-12.6-12.6c-6.9,0-12.6,5.7-12.6,12.6
			C479.1,387.2,484.8,392.8,491.7,392.8z"/>
		<path class="st0" d="M532.9,365.4c0-0.4,0.4-0.8,0.8-0.8h1.1l19.6,24.4c0,0,0,0,0.1,0v-23.1c0-0.4,0.4-0.8,0.8-0.8h1.5
			c0.4,0,0.8,0.4,0.8,0.8v29.2c0,0.4-0.4,0.8-0.8,0.8h-0.8L536.2,371h0v23.6c0,0.4-0.4,0.8-0.8,0.8h-1.5c-0.4,0-0.8-0.4-0.8-0.8
			L532.9,365.4L532.9,365.4z"/>
	</g>
</g>
</svg>
